name D:\school\WTK\thesis\model\3dpredictsim\Results\MidTarsalJoint\Fal_s1_bCst_PF_Gefen2002_ls150_MT_nl_Gefen2002_MTP_T1_spx10_ig23.mot
datacolumns 128
datarows 4
range 1.73614410 1.77086698
endheader
time	pelvis_tilt	pelvis_list	pelvis_rotation	pelvis_tx	pelvis_ty	pelvis_tz	hip_flexion_l	hip_adduction_l	hip_rotation_l	hip_flexion_r	hip_adduction_r	hip_rotation_r	knee_angle_l	knee_angle_r	ankle_angle_l	ankle_angle_r	subtalar_angle_l	subtalar_angle_r	mtj_angle_l	mtj_angle_r	mtp_angle_l	mtp_angle_r	lumbar_extension	lumbar_bending	lumbar_rotation	arm_flex_l	arm_add_l	arm_rot_l	arm_flex_r	arm_add_r	arm_rot_r	elbow_flex_l	elbow_flex_r	pro_sup_l	pro_sup_r	glut_med1_l/activation	glut_med2_l/activation	glut_med3_l/activation	glut_min1_l/activation	glut_min2_l/activation	glut_min3_l/activation	semimem_l/activation	semiten_l/activation	bifemlh_l/activation	bifemsh_l/activation	sar_l/activation	add_long_l/activation	add_brev_l/activation	add_mag1_l/activation	add_mag2_l/activation	add_mag3_l/activation	tfl_l/activation	pect_l/activation	grac_l/activation	glut_max1_l/activation	glut_max2_l/activation	glut_max3_l/activation	iliacus_l/activation	psoas_l/activation	quad_fem_l/activation	gem_l/activation	peri_l/activation	rect_fem_l/activation	vas_med_l/activation	vas_int_l/activation	vas_lat_l/activation	med_gas_l/activation	lat_gas_l/activation	soleus_l/activation	tib_post_l/activation	flex_dig_l/activation	flex_hal_l/activation	tib_ant_l/activation	per_brev_l/activation	per_long_l/activation	per_tert_l/activation	ext_dig_l/activation	ext_hal_l/activation	ercspn_l/activation	intobl_l/activation	extobl_l/activation	glut_med1_r/activation	glut_med2_r/activation	glut_med3_r/activation	glut_min1_r/activation	glut_min2_r/activation	glut_min3_r/activation	semimem_r/activation	semiten_r/activation	bifemlh_r/activation	bifemsh_r/activation	sar_r/activation	add_long_r/activation	add_brev_r/activation	add_mag1_r/activation	add_mag2_r/activation	add_mag3_r/activation	tfl_r/activation	pect_r/activation	grac_r/activation	glut_max1_r/activation	glut_max2_r/activation	glut_max3_r/activation	iliacus_r/activation	psoas_r/activation	quad_fem_r/activation	gem_r/activation	peri_r/activation	rect_fem_r/activation	vas_med_r/activation	vas_int_r/activation	vas_lat_r/activation	med_gas_r/activation	lat_gas_r/activation	soleus_r/activation	tib_post_r/activation	flex_dig_r/activation	flex_hal_r/activation	tib_ant_r/activation	per_brev_r/activation	per_long_r/activation	per_tert_r/activation	ext_dig_r/activation	ext_hal_r/activation	ercspn_r/activation	intobl_r/activation	extobl_r/activation	
          1.73614410	         -2.92973759	          2.26087251	         -5.69458257	          2.17018012	          0.92154535	          0.00416831	         31.23651289	          3.64697077	         -2.61008613	        -12.43138846	         -0.71031228	          7.44920357	        -16.01920759	        -18.44587374	          6.31159111	         -9.29118921	         -3.86872307	         11.07779340	          1.36074824	         21.11880127	         -0.40922657	         10.30590896	         -1.48251322	         -0.99346558	          1.61995165	         -7.07132544	        -13.47959630	          5.01619351	          3.40496560	        -13.46760284	         14.46517304	         16.26998109	         39.60068056	         86.51662706	         86.51662706	          0.05000000	          0.05000003	          0.09796473	          0.05000007	          0.05000006	          0.05000005	          0.14526307	          0.09115512	          0.15189352	          0.08487695	          0.08487762	          0.16542848	          0.26873765	          0.27962344	          0.16629571	          0.08179278	          0.05000054	          0.07119178	          0.12554950	          0.05000035	          0.08640672	          0.14504425	          0.07115149	          0.08487624	          0.68082232	          0.27868023	          0.11156023	          0.06383287	          0.05000013	          0.05000012	          0.05000009	          0.07115110	          0.07115117	          0.07115109	          0.06888340	          0.05964517	          0.05966849	          0.37637942	          0.05318301	          0.23006734	          0.17776031	          0.39163163	          0.16104139	          0.05000000	          0.09480368	          0.08318096	          0.14507564	          0.05000083	          0.05000101	          0.21622574	          0.15138932	          0.06887929	          0.05002073	          0.05359722	          0.05138045	          0.05000013	          0.05700974	          0.09695977	          0.05964605	          0.05964575	          0.05964561	          0.05964553	          0.23046664	          0.07115045	          0.05964545	          0.05003674	          0.05663553	          0.05964529	          0.27610264	          0.43672938	          0.05964528	          0.05964522	          0.05312338	          0.34957692	          0.16835165	          0.16774421	          0.16128014	          0.31797525	          0.38484134	          0.22799781	          0.29556039	          0.19796089	          0.24211420	          0.05000013	          0.05000014	          0.07808184	          0.05000025	          0.05000044	          0.05000042	          0.05000020	          0.07044194	          0.08487641	
          1.74771839	         -2.93004259	          2.33003545	         -5.85095559	          2.18807318	          0.92059146	          0.00376048	         30.78759686	          3.90419389	         -2.49825707	        -13.07694575	         -1.08451442	          7.36110811	        -17.07491872	        -18.94706428	          5.47541458	         -9.57802978	         -4.13966448	         12.10120058	          0.85629600	         18.90978383	         -0.41442261	         12.95774748	         -1.25553589	         -1.17728758	          1.71598806	         -7.97760308	        -13.49085061	          5.07917101	          3.16200040	        -13.47641636	         14.91327479	         15.81400211	         40.46815209	         86.51662706	         86.51662706	          0.28037918	          0.33032176	          0.40960990	          0.46376642	          0.36496107	          0.36785717	          0.12177257	          0.07641452	          0.12733081	          0.07115153	          0.07115212	          0.13867705	          0.22528009	          0.23440555	          0.13940420	          0.13943653	          0.05000030	          0.05967989	          0.10524699	          0.05000063	          0.15703604	          0.17149139	          0.05964561	          0.07115091	          0.57072643	          0.23361490	          0.22127972	          0.05351047	          0.05000145	          0.05000508	          0.05831155	          0.05964525	          0.05964531	          0.05964524	          0.05774427	          0.05000024	          0.05001955	          0.53916114	          0.28940224	          0.19286343	          0.53588188	          0.55552126	          0.39078410	          0.06971292	          0.12078140	          0.06972976	          0.27966939	          0.05325008	          0.05000006	          0.38096788	          0.16912894	          0.07116114	          0.05000089	          0.05000012	          0.05000009	          0.05964522	          0.08493573	          0.08128042	          0.05000073	          0.05000049	          0.05000052	          0.05000034	          0.19321865	          0.05964506	          0.05000051	          0.05000076	          0.05000035	          0.05000022	          0.24398487	          0.50359411	          0.05000009	          0.05000026	          0.05000008	          0.29304679	          0.14112753	          0.14061832	          0.13519954	          0.26655542	          0.32260859	          0.19112824	          0.24776528	          0.16594867	          0.20296192	          0.05763280	          0.13039889	          0.09429499	          0.05000152	          0.10635768	          0.05957112	          0.06735694	          0.05905076	          0.07115103	
          1.75929268	         -2.92966412	          2.40080447	         -5.96415624	          2.20590989	          0.91977476	          0.00331850	         30.42357999	          4.12825233	         -2.40350574	        -13.59786663	         -1.43944423	          7.28748710	        -18.16206057	        -19.61132660	          4.15862849	         -9.76271007	         -4.38450264	         13.06301904	          0.63090420	         16.19234357	         -0.42306799	         15.95947546	         -1.04567279	         -1.37283655	          1.80247560	         -8.81120670	        -13.50162990	          5.22685008	          2.91603505	        -13.48290934	         15.34260529	         15.31990765	         41.23480302	         86.51662706	         86.51662706	          0.37106512	          0.44574041	          0.42276097	          0.38877091	          0.34000545	          0.30837142	          0.10208071	          0.06405808	          0.10674013	          0.05964565	          0.05964614	          0.11625159	          0.18885003	          0.19649994	          0.15093637	          0.16754524	          0.05000099	          0.05002932	          0.08822766	          0.22277367	          0.22012045	          0.20490790	          0.05000032	          0.05964510	          0.47843418	          0.19583705	          0.18549666	          0.05000002	          0.21396755	          0.20304023	          0.19651426	          0.05000001	          0.05000008	          0.05000000	          0.05000004	          0.05000029	          0.05000017	          0.64789886	          0.27012455	          0.21096342	          0.67925399	          0.58426889	          0.32759093	          0.08714587	          0.10124982	          0.05845376	          0.23444403	          0.05514293	          0.05965787	          0.31936154	          0.14177914	          0.05965418	          0.05000158	          0.05000017	          0.05000019	          0.05000011	          0.07120085	          0.15984103	          0.05000037	          0.05000070	          0.05001786	          0.08111921	          0.16197329	          0.05000087	          0.05000042	          0.05004689	          0.05011897	          0.07424772	          0.20453005	          0.51268930	          0.05000055	          0.05955220	          0.05964956	          0.24565814	          0.14408037	          0.14408036	          0.14408035	          0.22345070	          0.27043951	          0.16022086	          0.20769914	          0.13911316	          0.17014097	          0.09003975	          0.11244885	          0.08676760	          0.13447851	          0.13435285	          0.05000065	          0.09698971	          0.05000001	          0.05964519	
          1.77086698	         -2.92906824	          2.46796867	         -6.03854373	          2.22353107	          0.91934117	          0.00283775	         30.16921107	          4.36383640	         -2.30616249	        -13.94948120	         -1.76404518	          7.22693330	        -19.39418137	        -20.45756064	          2.83622923	         -9.94655009	         -4.60877237	         13.95248365	          0.58486262	         12.94590668	         -0.43952537	         19.30985023	         -0.86035882	         -1.57400122	          1.88637941	         -9.54143493	        -13.50014745	          5.40440526	          2.70460710	        -13.47995744	         15.78451223	         14.78360583	         41.83434557	         86.51662706	         86.51662706	          0.40271796	          0.41805455	          0.40799071	          0.32590279	          0.28502324	          0.25850488	          0.08557324	          0.05369935	          0.08947919	          0.05000038	          0.05000088	          0.09745260	          0.15831131	          0.17112530	          0.18004236	          0.18907776	          0.05000138	          0.05000176	          0.07396053	          0.24947112	          0.24593793	          0.23112295	          0.05000010	          0.05000011	          0.40106656	          0.16416829	          0.15550024	          0.05964444	          0.30634030	          0.28897110	          0.27169109	          0.05000006	          0.05000018	          0.05000002	          0.06761359	          0.05000068	          0.05000066	          0.68247168	          0.24748797	          0.18033919	          0.56941186	          0.62379327	          0.27461743	          0.09292288	          0.08487669	          0.05000004	          0.19653215	          0.05000247	          0.05001257	          0.26771760	          0.11885209	          0.05000815	          0.05000154	          0.05000021	          0.05000025	          0.05000012	          0.05968710	          0.13399356	          0.12645383	          0.18983422	          0.05491021	          0.09219495	          0.13578062	          0.05000272	          0.05000073	          0.05002079	          0.05002639	          0.06224805	          0.17145548	          0.46526015	          0.05553746	          0.05001765	          0.05000397	          0.20593272	          0.12078112	          0.12078112	          0.12078111	          0.18731645	          0.22670671	          0.13431151	          0.17411211	          0.11661723	          0.14262751	          0.11721437	          0.10927194	          0.08851048	          0.16562004	          0.15694088	          0.12631637	          0.10837244	          0.05000004	          0.05000003	
